HIERARCHY
ROOT Root
{
	OFFSET 0.00000 0.00000 0.00000
	CHANNELS 6 Xposition Yposition Zposition Zrotation Xrotation Yrotation
	JOINT Hips
	{
		OFFSET 0 0 0	
		CHANNELS 3 Zrotation Xrotation Yrotation
		JOINT Spine
		{
			OFFSET 0 4 0	
			CHANNELS 3 Zrotation Xrotation Yrotation
			JOINT Spine1
			{
				OFFSET 0 19.4 0	
				CHANNELS 3 Zrotation Xrotation Yrotation
				JOINT Spine2
				{
					OFFSET 0 16.6 0	
					CHANNELS 3 Zrotation Xrotation Yrotation
					JOINT LeftCollar
					{
						OFFSET 0 10 0	
						CHANNELS 3 Zrotation Xrotation Yrotation
						JOINT LeftArm
						{
							OFFSET 15.6 -2 3	
							CHANNELS 3 Zrotation Xrotation Yrotation
							JOINT LeftForeArm
							{
								OFFSET 3.5 -27 -1	
								CHANNELS 3 Zrotation Xrotation Yrotation
								JOINT LeftHand
								{
									OFFSET 1 -27 1	
									CHANNELS 3 Zrotation Xrotation Yrotation
									End Site
									{
										OFFSET 0 -15 0
									}
								}
							}
						}
					}
					JOINT RightCollar
					{
						OFFSET 0 10 0	
						CHANNELS 3 Zrotation Xrotation Yrotation
						JOINT RightArm
						{
							OFFSET -15.6 -2 3	
							CHANNELS 3 Zrotation Xrotation Yrotation
							JOINT RightForeArm
							{
								OFFSET -3.5 -27 -1	
								CHANNELS 3 Zrotation Xrotation Yrotation
								JOINT RightHand
								{
									OFFSET -1 -27 1	
									CHANNELS 3 Zrotation Xrotation Yrotation
									End Site
									{
										OFFSET 0 -15 0
									}
								}
							}
						}
					}
					JOINT Neck
					{
						OFFSET 0 10 0	
						CHANNELS 3 Zrotation Xrotation Yrotation
						JOINT Head
						{
							OFFSET 0 12.7 3	
							CHANNELS 3 Zrotation Xrotation Yrotation
							End Site
							{
								OFFSET 0 12.7 3
							}
						}
					}
				}
			}
		}
	}
	JOINT LeftHip
	{
		OFFSET 0 0 0	
		CHANNELS 3 Zrotation Xrotation Yrotation
		JOINT LeftUpLeg
		{
			OFFSET 8.8 -6 0	
			CHANNELS 3 Zrotation Xrotation Yrotation
			JOINT LeftLeg
			{
				OFFSET 0 -39 2	
				CHANNELS 3 Zrotation Xrotation Yrotation
				JOINT LeftFoot
				{
					OFFSET 0 -43 -2	
					CHANNELS 3 Zrotation Xrotation Yrotation
					JOINT LeftFootFront
					{
						OFFSET 0 -7 8.5	
						CHANNELS 3 Zrotation Xrotation Yrotation
						End Site
						{
							OFFSET 0 -0.5 9
						}
					}
				}
				JOINT LeftHeel
				{
					OFFSET 0 -43 -2	
					CHANNELS 3 Zrotation Xrotation Yrotation
					End Site
					{
						OFFSET 0 -7.5 -5
					}
				}
			}
		}
	}
	JOINT RightHip
	{
		OFFSET 0 0 0	
		CHANNELS 3 Zrotation Xrotation Yrotation
		JOINT RightUpLeg
		{
			OFFSET -8.8 -6 0	
			CHANNELS 3 Zrotation Xrotation Yrotation
			JOINT RightLeg
			{
				OFFSET 0 -39 2	
				CHANNELS 3 Zrotation Xrotation Yrotation
				JOINT RightFoot
				{
					OFFSET 0 -43 -2	
					CHANNELS 3 Zrotation Xrotation Yrotation
					JOINT RightFootFront
					{
						OFFSET 0 -7 8.5	
						CHANNELS 3 Zrotation Xrotation Yrotation
						End Site
						{
							OFFSET 0 -0.5 9
						}
					}
				}
				JOINT RightHeel
				{
					OFFSET 0 -43 -2	
					CHANNELS 3 Zrotation Xrotation Yrotation
					End Site
					{
						OFFSET 0 -7.5 -5
					}
				}
			}
		}
	}
}
MOTION
Frames: 8
Frame Time: 0.025
0 95.706 0 -0 0 -0 -0.42362 1.6909 -0.78053 -0.31812 -0.5184 0.28624 -0.31812 -0.5184 0.28624 -0.2674 -0.43535 0.24063 -0 0 -0 0.40617 1.0071 1.5971 2.0459 -2.6709 -1.2541 6.2282 -1.4403 0.78413 -0 0 -0 -0.81833 -1.0664 2.9294 -0.56551 -1.8481 -2.27 -0.60906 5.3202 3.9683 1.708 -1.2153 1.1955 1.708 -1.2153 1.1955 -0.42362 1.6909 -0.78053 0.077847 -0.95952 -0.72026 -0.37403 -1.5274 2.1462 0.7423 1.1071 -2.6264 0 0 -3.7519e-08 -0 0 -0 -0.42362 1.6909 -0.78053 -0.14903 -1.5793 -0.068378 -0.079471 -0.36965 0.2686 0.67641 0.26145 0.57237 -0 0 -0 -0 0 -0 
0 95.706 0 -0 0 -0 -0.4315 1.6758 -0.77708 -0.31064 -0.51928 0.28017 -0.31064 -0.51928 0.28017 -0.2611 -0.4361 0.23553 -0 0 -0 0.3932 1.0271 1.6135 2.0512 -2.6883 -1.2599 6.2219 -1.4249 0.78651 -0 0 -0 -0.83563 -1.0546 2.927 -0.53304 -1.8499 -2.2659 -0.63795 5.3261 3.9823 1.7029 -1.2116 1.2034 1.7029 -1.2116 1.2034 -0.4315 1.6758 -0.77708 0.082441 -0.94108 -0.72314 -0.36435 -1.5411 2.1392 0.73595 1.1179 -2.6197 -0.01355 0.0085848 0.0020734 -0 0 -0 -0.4315 1.6758 -0.77708 -0.15088 -1.5845 -0.080492 -0.068895 -0.35789 0.27169 0.67531 0.27018 0.57788 -0 0 -0 -0 0 -0 
0 95.705 0 -0 0 -0 -0.44199 1.6546 -0.77193 -0.3008 -0.51684 0.27386 -0.3008 -0.51684 0.27386 -0.25283 -0.43405 0.23022 -0 0 -0 0.37857 1.0415 1.6299 2.0551 -2.7102 -1.266 6.2175 -1.4147 0.78797 -0 0 -0 -0.85074 -1.0582 2.9181 -0.49624 -1.8414 -2.2605 -0.68213 5.3353 3.9965 1.697 -1.2119 1.2124 1.697 -1.2119 1.2124 -0.44199 1.6546 -0.77193 0.089542 -0.91506 -0.72746 -0.35257 -1.5607 2.1294 0.71447 1.1425 -2.6082 -0.0095502 0.004275 0.0029412 -0 0 -0 -0.44199 1.6546 -0.77193 -0.16146 -1.5811 -0.09727 -0.045097 -0.35088 0.27367 0.6722 0.28123 0.58723 -0 0 -0 -0 0 -0 
0 95.704 0 -0 0 -0 -0.45126 1.6328 -0.76544 -0.29175 -0.51205 0.26851 -0.29175 -0.51205 0.26851 -0.24523 -0.43003 0.22572 -0 0 -0 0.37708 1.0485 1.6425 2.0458 -2.733 -1.2706 6.2148 -1.4056 0.78906 -0 0 -0 -0.85079 -1.0616 2.9079 -0.47493 -1.8362 -2.2569 -0.72402 5.3384 4.0073 1.6925 -1.2154 1.2216 1.6925 -1.2154 1.2216 -0.45126 1.6328 -0.76544 0.095369 -0.88819 -0.73316 -0.34331 -1.5796 2.1195 0.69929 1.1616 -2.5958 0.0073732 -0.015413 0.0031659 -0 0 -0 -0.45126 1.6328 -0.76544 -0.17163 -1.5639 -0.11522 -0.020997 -0.35671 0.27419 0.66713 0.29202 0.59788 -0 0 -0 -0 0 -0 
0 95.704 0 -0 0 -0 -0.45831 1.6113 -0.75708 -0.2844 -0.50729 0.26324 -0.2844 -0.50729 0.26324 -0.23905 -0.42604 0.22129 -0 0 -0 0.3863 1.0362 1.654 2.0288 -2.737 -1.2755 6.214 -1.3948 0.79235 -0 0 -0 -0.84155 -1.0602 2.8997 -0.46307 -1.8331 -2.2547 -0.76131 5.3324 4.0145 1.6891 -1.2187 1.2312 1.6891 -1.2187 1.2312 -0.45831 1.6113 -0.75708 0.096994 -0.86128 -0.74115 -0.33693 -1.5969 2.1102 0.70491 1.158 -2.5839 0.0087224 -0.028271 0.0031554 -0 0 -0 -0.45831 1.6113 -0.75708 -0.1694 -1.5429 -0.13297 -0.011724 -0.36673 0.27527 0.66223 0.30275 0.60624 -0 0 -0 -0 0 -0 
0 95.703 0 -0 0 -0 -0.46411 1.5898 -0.74687 -0.27773 -0.50248 0.25837 -0.27773 -0.50248 0.25837 -0.23345 -0.422 0.21719 -0 0 -0 0.39916 1.0131 1.6659 2.0108 -2.7295 -1.281 6.2149 -1.3844 0.7962 -0 0 -0 -0.82976 -1.0601 2.8907 -0.45002 -1.8292 -2.2537 -0.80106 5.3167 4.0207 1.6851 -1.2221 1.2407 1.6851 -1.2221 1.2407 -0.46411 1.5898 -0.74687 0.096377 -0.83302 -0.75184 -0.33294 -1.6144 2.1012 0.71466 1.1402 -2.5716 0.0030856 -0.031614 0.0032106 -0 0 -0 -0.46411 1.5898 -0.74687 -0.15158 -1.5291 -0.14838 -0.020809 -0.36771 0.27606 0.65878 0.31155 0.61114 -0 0 -0 -0 0 -0 
0 95.703 0 -0 0 -0 -0.47043 1.5702 -0.73505 -0.27053 -0.49857 0.2541 -0.27053 -0.49857 0.2541 -0.22739 -0.41872 0.21361 -0 0 -0 0.41132 0.98953 1.6777 1.9958 -2.7206 -1.2848 6.2156 -1.3756 0.79744 -0 0 -0 -0.81837 -1.0606 2.881 -0.43792 -1.8216 -2.2544 -0.84119 5.2931 4.0273 1.6797 -1.225 1.2496 1.6797 -1.225 1.2496 -0.47043 1.5702 -0.73505 0.097324 -0.80616 -0.76379 -0.32941 -1.6321 2.0892 0.71799 1.1192 -2.5564 -0.0037233 -0.031088 0.0037652 -0 0 -0 -0.47043 1.5702 -0.73505 -0.13135 -1.5288 -0.16274 -0.032153 -0.35401 0.27746 0.65563 0.31728 0.61284 -0 0 -0 -0 0 -0 
0 95.702 0 -0 0 -0 -0.47893 1.5544 -0.72165 -0.26186 -0.49716 0.25034 -0.26186 -0.49716 0.25034 -0.22011 -0.41754 0.21044 -0 0 -0 0.41998 0.96885 1.6884 1.9848 -2.7116 -1.2864 6.2131 -1.367 0.7962 -0 0 -0 -0.80871 -1.0607 2.8723 -0.44734 -1.803 -2.2505 -0.85977 5.2634 4.0284 1.6733 -1.2263 1.2579 1.6733 -1.2263 1.2579 -0.47893 1.5544 -0.72165 0.097835 -0.78725 -0.77382 -0.32012 -1.6457 2.0712 0.71126 1.0992 -2.538 -0.00335 -0.029618 0.0044961 -0 0 -0 -0.47893 1.5544 -0.72165 -0.11757 -1.5413 -0.17784 -0.034479 -0.3302 0.28105 0.65209 0.32187 0.61135 -0 0 -0 -0 0 -0 
